<svg xmlns="http://www.w3.org/2000/svg" width="375" height="812" viewBox="0 0 375 812" role="img" aria-labelledby="title desc">
<title id="title">Messages — conversation-mobile wireframe</title>
<desc id="desc">CampusBridge target layout. Fictional sample content. Static wireframe; controls are illustrative.</desc>
<style>text{font-family:Arial,Helvetica,sans-serif;fill:#252525} .muted{fill:#555} .white{fill:#fff}</style>
<rect x="0" y="0" width="375" height="812" rx="0" fill="#fafafa" stroke="none" stroke-width="1"/>
<rect x="0" y="0" width="375" height="64" rx="0" fill="#fff" stroke="#999" stroke-width="1"/>
<text x="16" y="39" font-size="18" font-weight="700" text-anchor="start" class="">CampusBridge</text>
<rect x="307" y="10" width="52" height="44" rx="4" fill="#fff" stroke="#999" stroke-width="1"/>
<text x="333.0" y="36.2" font-size="12" font-weight="400" text-anchor="middle" class="">Profile</text>
<rect x="0" y="740" width="375" height="72" rx="0" fill="#fff" stroke="#999" stroke-width="1"/>
<rect x="38.0" y="756" width="18" height="18" rx="3" fill="#fff" stroke="#999" stroke-width="1"/>
<text x="46.8" y="796" font-size="11" font-weight="400" text-anchor="middle" class="">Marketplace</text>
<rect x="101.75" y="742" width="78" height="4" rx="0" fill="#252525" stroke="none" stroke-width="1"/>
<rect x="131.75" y="756" width="18" height="18" rx="3" fill="#d8d8d8" stroke="#999" stroke-width="1"/>
<text x="140.55" y="796" font-size="11" font-weight="700" text-anchor="middle" class="">Messages</text>
<rect x="225.5" y="756" width="18" height="18" rx="3" fill="#fff" stroke="#999" stroke-width="1"/>
<text x="234.3" y="796" font-size="11" font-weight="400" text-anchor="middle" class="">Community</text>
<rect x="319.25" y="756" width="18" height="18" rx="3" fill="#fff" stroke="#999" stroke-width="1"/>
<text x="328.05" y="796" font-size="11" font-weight="400" text-anchor="middle" class="">Support</text>
<text x="16" y="106" font-size="26" font-weight="700" text-anchor="start" class="">Messages</text>
<text x="16" y="132" font-size="13" font-weight="400" text-anchor="start" class="muted">Marketplace conversation</text>
<rect x="16" y="152" width="112" height="44" rx="4" fill="#fff" stroke="#999" stroke-width="1"/>
<text x="72.0" y="178.9" font-size="14" font-weight="400" text-anchor="middle" class="">‹ Inbox</text>
<rect x="191" y="152" width="168" height="44" rx="4" fill="#fff" stroke="#999" stroke-width="1"/>
<text x="275.0" y="178.9" font-size="14" font-weight="400" text-anchor="middle" class="">Block / Report</text>
<text x="16" y="228" font-size="19" font-weight="700" text-anchor="start" class="">Alex R. · UC</text>
<rect x="16" y="246" width="343" height="66" rx="4" fill="#eee" stroke="#999" stroke-width="1"/>
<text x="28" y="273" font-size="15" font-weight="700" text-anchor="start" class="">Calculus textbook · $25</text>
<text x="28" y="298" font-size="13" font-weight="400" text-anchor="start" class="">Available · View listing</text>
<rect x="16" y="338" width="285" height="82" rx="8" fill="#eee" stroke="#999" stroke-width="1"/>
<text x="30" y="366" font-size="14" font-weight="400" text-anchor="start" class="">Is the textbook still available?</text>
<text x="30" y="402" font-size="12" font-weight="400" text-anchor="start" class="muted">10:42 AM</text>
<rect x="64" y="442" width="295" height="92" rx="8" fill="#ddd" stroke="#999" stroke-width="1"/>
<text x="78" y="470" font-size="14" font-weight="400" text-anchor="start" class="">Yes. We can arrange pickup here.</text>
<text x="78" y="511" font-size="12" font-weight="400" text-anchor="start" class="muted">10:43 AM · Sent</text>
<text x="16" y="618" font-size="13" font-weight="400" text-anchor="start" class="muted">Keep contact details in-platform.</text>
<rect x="16" y="654" width="250" height="44" rx="4" fill="#fff" stroke="#999" stroke-width="1"/>
<text x="28" y="682" font-size="14" font-weight="400" text-anchor="start" class="muted">Write a message…</text>
<rect x="278" y="654" width="81" height="44" rx="4" fill="#333" stroke="#999" stroke-width="1"/>
<text x="318.5" y="680.9" font-size="14" font-weight="700" text-anchor="middle" class="white">Send</text>
</svg>
